<svg xmlns="http://www.w3.org/2000/svg" width="1699" height="1087" viewBox="0 0 1699 1087"><g transform="translate(-184 -102)"><g transform="translate(303 167)" fill="#c9b9b9" stroke="#707070" stroke-width="1"><circle cx="26" cy="26" r="26" stroke="none"/><circle cx="26" cy="26" r="25.5" fill="none"/></g><g transform="translate(668 141)" fill="#c9b9b9" stroke="#707070" stroke-width="1"><circle cx="26" cy="26" r="26" stroke="none"/><circle cx="26" cy="26" r="25.5" fill="none"/></g><g transform="translate(1264 208)" fill="#c9b9b9" stroke="#707070" stroke-width="1"><circle cx="26" cy="26" r="26" stroke="none"/><circle cx="26" cy="26" r="25.5" fill="none"/></g><g transform="translate(1022 273)" fill="#c9b9b9" stroke="#707070" stroke-width="1"><circle cx="26" cy="26" r="26" stroke="none"/><circle cx="26" cy="26" r="25.5" fill="none"/></g><g transform="translate(1831 167)" fill="#c9b9b9" stroke="#707070" stroke-width="1"><circle cx="26" cy="26" r="26" stroke="none"/><circle cx="26" cy="26" r="25.5" fill="none"/></g><g transform="translate(1779 705)" fill="#c9b9b9" stroke="#707070" stroke-width="1"><circle cx="26" cy="26" r="26" stroke="none"/><circle cx="26" cy="26" r="25.5" fill="none"/></g><g transform="translate(1146 757)" fill="#c9b9b9" stroke="#707070" stroke-width="1"><circle cx="26" cy="26" r="26" stroke="none"/><circle cx="26" cy="26" r="25.5" fill="none"/></g><g transform="translate(374 417)" fill="#c9b9b9" stroke="#707070" stroke-width="1"><circle cx="26" cy="26" r="26" stroke="none"/><circle cx="26" cy="26" r="25.5" fill="none"/></g><g transform="translate(410 810)" fill="#c9b9b9" stroke="#707070" stroke-width="1"><circle cx="26" cy="26" r="26" stroke="none"/><circle cx="26" cy="26" r="25.5" fill="none"/></g><g transform="translate(184 668)" fill="#c9b9b9" stroke="#707070" stroke-width="1"><circle cx="26" cy="26" r="26" stroke="none"/><circle cx="26" cy="26" r="25.5" fill="none"/></g><g transform="translate(1414 758)" fill="#c9b9b9" stroke="#707070" stroke-width="1"><circle cx="26" cy="26" r="26" stroke="none"/><circle cx="26" cy="26" r="25.5" fill="none"/></g><g transform="translate(720 659)" fill="#c9b9b9" stroke="#707070" stroke-width="1"><circle cx="26" cy="26" r="26" stroke="none"/><circle cx="26" cy="26" r="25.5" fill="none"/></g><g transform="translate(1532 102)" fill="#c9b9b9" stroke="#707070" stroke-width="1"><circle cx="26" cy="26" r="26" stroke="none"/><circle cx="26" cy="26" r="25.5" fill="none"/></g><g transform="translate(910 571)" fill="#c9b9b9" stroke="#707070" stroke-width="1"><circle cx="26" cy="26" r="26" stroke="none"/><circle cx="26" cy="26" r="25.5" fill="none"/></g><g transform="translate(1604 971)" fill="#c9b9b9" stroke="#707070" stroke-width="1"><circle cx="26" cy="26" r="26" stroke="none"/><circle cx="26" cy="26" r="25.5" fill="none"/></g><g transform="translate(544 1137)" fill="#c9b9b9" stroke="#707070" stroke-width="1"><circle cx="26" cy="26" r="26" stroke="none"/><circle cx="26" cy="26" r="25.5" fill="none"/></g><g transform="translate(1342 1037)" fill="#c9b9b9" stroke="#707070" stroke-width="1"><circle cx="26" cy="26" r="26" stroke="none"/><circle cx="26" cy="26" r="25.5" fill="none"/></g><g transform="translate(1506 531)" fill="#c9b9b9" stroke="#707070" stroke-width="1"><circle cx="26" cy="26" r="26" stroke="none"/><circle cx="26" cy="26" r="25.5" fill="none"/></g><g transform="translate(838 1023)" fill="#c9b9b9" stroke="#707070" stroke-width="1"><circle cx="26" cy="26" r="26" stroke="none"/><circle cx="26" cy="26" r="25.5" fill="none"/></g></g></svg>