<svg xmlns="http://www.w3.org/2000/svg" width="405.5" height="465.016" viewBox="0 0 405.5 465.016"><g transform="translate(-1090 -296.492)"><line x2="7.51" y2="465" transform="translate(1090.5 296.5)" fill="none" stroke="#707070" stroke-width="1"/><line x2="397" transform="translate(1098.5 760.5)" fill="none" stroke="#707070" stroke-width="1"/><g transform="translate(1142 345)" fill="#d8d87b" stroke="#707070" stroke-width="1"><rect width="31" height="415" stroke="none"/><rect x="0.5" y="0.5" width="30" height="414" fill="none"/></g><g transform="translate(1175 531)" fill="#e599e8" stroke="#707070" stroke-width="1"><rect width="31" height="229" stroke="none"/><rect x="0.5" y="0.5" width="30" height="228" fill="none"/></g><g transform="translate(1218 385)" fill="#ee9f9f" stroke="#707070" stroke-width="1"><rect width="31" height="375" stroke="none"/><rect x="0.5" y="0.5" width="30" height="374" fill="none"/></g><g transform="translate(1262 478)" fill="#f39e9e" stroke="#707070" stroke-width="1"><rect width="31" height="282" stroke="none"/><rect x="0.5" y="0.5" width="30" height="281" fill="none"/></g><g transform="translate(1305 344)" fill="#b99" stroke="#707070" stroke-width="1"><rect width="31" height="416" stroke="none"/><rect x="0.5" y="0.5" width="30" height="415" fill="none"/></g><g transform="translate(1349 385)" fill="#ee8686" stroke="#707070" stroke-width="1"><rect width="31" height="375" stroke="none"/><rect x="0.5" y="0.5" width="30" height="374" fill="none"/></g><g transform="translate(1392 631)" fill="#438ff2" stroke="#707070" stroke-width="1"><rect width="31" height="129" stroke="none"/><rect x="0.5" y="0.5" width="30" height="128" fill="none"/></g><g transform="translate(1436 385)" fill="#d8ecb9" stroke="#707070" stroke-width="1"><rect width="31" height="375" stroke="none"/><rect x="0.5" y="0.5" width="30" height="374" fill="none"/></g></g></svg>