<svg xmlns="http://www.w3.org/2000/svg" width="673" height="449" viewBox="0 0 673 449"><g transform="translate(313 -907)"><g transform="translate(-313 907)" fill="#ff5757" stroke="#060606" stroke-linejoin="round" stroke-width="20" opacity="0.83"><rect width="673" height="399" rx="19" stroke="none"/><rect x="10" y="10" width="653" height="379" rx="9" fill="none"/></g><rect width="351" height="12" transform="translate(-150 1344)" fill="#0e0d0d" opacity="0.83"/><rect width="247" height="41" transform="translate(-98 1306)" opacity="0.83"/><text transform="translate(-83 1148)" fill="#f3f3f3" font-size="90" font-family="SegoeUI, Segoe UI"><tspan x="0" y="0">25:00</tspan></text><g transform="translate(177 965)" fill="#fff" stroke="#707070" stroke-width="1"><rect width="144" height="109" rx="12" stroke="none"/><rect x="0.5" y="0.5" width="143" height="108" rx="11.5" fill="none"/></g><g transform="translate(189 981)" fill="#fff" stroke="#707070" stroke-width="1"><rect width="79" height="7" rx="3.5" stroke="none"/><rect x="0.5" y="0.5" width="78" height="6" rx="3" fill="none"/></g><g transform="translate(189 981)" fill="#fff" stroke="#707070" stroke-width="1"><rect width="100" height="7" rx="3.5" stroke="none"/><rect x="0.5" y="0.5" width="99" height="6" rx="3" fill="none"/></g><g transform="translate(189 993)" fill="#fff" stroke="#707070" stroke-width="1"><rect width="84" height="7" rx="3.5" stroke="none"/><rect x="0.5" y="0.5" width="83" height="6" rx="3" fill="none"/></g><g transform="translate(189 1005)" fill="#fff" stroke="#707070" stroke-width="1"><rect width="82" height="7" rx="3.5" stroke="none"/><rect x="0.5" y="0.5" width="81" height="6" rx="3" fill="none"/></g><g transform="translate(189 1020)" fill="#fff" stroke="#707070" stroke-width="1"><rect width="82" height="7" rx="3.5" stroke="none"/><rect x="0.5" y="0.5" width="81" height="6" rx="3" fill="none"/></g><g transform="translate(189 1033)" fill="#fff" stroke="#707070" stroke-width="1"><rect width="82" height="7" rx="3.5" stroke="none"/><rect x="0.5" y="0.5" width="81" height="6" rx="3" fill="none"/></g><g transform="translate(-272 965)" fill="#fff" stroke="#707070" stroke-width="1"><rect width="84" height="20" rx="10" stroke="none"/><rect x="0.5" y="0.5" width="83" height="19" rx="9.5" fill="none"/></g><g transform="translate(-292 954)" fill="#070707" stroke="#707070" stroke-width="1"><rect width="630" height="1" stroke="none"/><rect x="0.5" y="0.5" width="629" fill="none"/></g></g></svg>