<svg xmlns="http://www.w3.org/2000/svg" width="384" height="376" viewBox="0 0 384 376"><g transform="translate(-1823 -385)"><g transform="translate(1823 385)" fill="#fff" stroke="#707070" stroke-width="5"><ellipse cx="192" cy="188" rx="192" ry="188" stroke="none"/><ellipse cx="192" cy="188" rx="189.5" ry="185.5" fill="none"/></g><g transform="translate(2011 385)" fill="#8f8b8b" stroke="#707070" stroke-width="1"><rect width="9" height="376" stroke="none"/><rect x="0.5" y="0.5" width="8" height="375" fill="none"/></g><g transform="translate(1867 453)" fill="#7d7b7b"><path d="M 147.0678405761719 25.60012435913086 L 0.5 5.563692092895508 L 0.5 0.567778468132019 L 147.0045013427734 19.24267578125 L 147.0675354003906 19.2507152557373 L 147.1305694580078 19.24271392822266 L 294.5 0.5673485994338989 L 294.5 5.563322067260742 L 147.0678405761719 25.60012435913086 Z" stroke="none"/><path d="M 294 1.13471794128418 L 147.1934661865234 19.7387523651123 L 147.0673522949219 19.75471496582031 L 146.9412689208984 19.73863792419434 L 1 1.135534286499023 L 1 5.127399444580078 L 147.0680999755859 25.09551620483398 L 294 5.126703262329102 L 294 1.13471794128418 M 0 -1.71661376953125e-05 L 147.0677337646484 18.74667549133301 L 295 -1.71661376953125e-05 L 295 5.999982833862305 L 147.0677337646484 26.1047534942627 L 0 5.999982833862305 L 0 -1.71661376953125e-05 Z" stroke="none" fill="#707070"/></g><g transform="translate(1823 563)" fill="#7d7b7b" stroke="#707070" stroke-width="1"><rect width="384" height="11" stroke="none"/><rect x="0.5" y="0.5" width="383" height="10" fill="none"/></g><g transform="translate(1893 713)" fill="#6d6767"><path d="M 0.5 5.432390213012695 L 0.5 0.4359847903251648 L 122.3871536254883 -16.31745147705078 L 243.5 0.4356003105640411 L 243.5 5.431917190551758 L 122.450813293457 -10.06168079376221 L 122.3875274658203 -10.06977462768555 L 122.3242492675781 -10.06171226501465 L 0.5 5.432390213012695 Z" stroke="none"/><path d="M 1 4.864777565002441 L 122.2611846923828 -10.55771160125732 L 122.3877487182617 -10.573805809021 L 122.5143127441406 -10.55761814117432 L 243 4.863854885101318 L 243 0.8711982369422913 L 122.3869247436523 -15.81272125244141 L 1 0.8719585537910461 L 1 4.864777565002441 M 244 6.000006675720215 L 122.3873443603516 -9.565711975097656 L 0 6.000006675720215 L 0 6.713867151120212e-06 L 122.3873443603516 -16.82218170166016 L 244 6.713867151120212e-06 L 244 6.000006675720215 Z" stroke="none" fill="#707070"/></g><path d="M1474.5,60.352c-116.58,182.134,0,365.345,0,365.345" transform="translate(540 329)" fill="none" stroke="#707070" stroke-width="5"/><path d="M1474.5,60.352c-116.58,182.134,0,365.345,0,365.345" transform="translate(3494.187 815.049) rotate(180)" fill="none" stroke="#707070" stroke-width="7"/></g></svg>