<svg xmlns="http://www.w3.org/2000/svg" width="497" height="687" viewBox="0 0 497 687"><g transform="translate(-51 -96)"><g transform="translate(-451 -74)"><g transform="translate(-280 -48)"><g transform="translate(782 243)" fill="#fff" stroke="#707070" stroke-width="20"><rect width="497" height="662" stroke="none"/><rect x="10" y="10" width="477" height="642" fill="none"/></g><g transform="translate(898 218)" fill="#5b5b5b" stroke="#707070" stroke-width="1"><rect width="265" height="35" stroke="none"/><rect x="0.5" y="0.5" width="264" height="34" fill="none"/></g><g transform="translate(836 311)" fill="#fff" stroke="#707070" stroke-width="1"><rect width="32" height="32" stroke="none"/><rect x="0.5" y="0.5" width="31" height="31" fill="none"/></g><g transform="translate(836 363)" fill="#fff" stroke="#707070" stroke-width="1"><rect width="32" height="32" stroke="none"/><rect x="0.5" y="0.5" width="31" height="31" fill="none"/></g><g transform="translate(836 415)" fill="#fff" stroke="#707070" stroke-width="1"><rect width="32" height="32" stroke="none"/><rect x="0.5" y="0.5" width="31" height="31" fill="none"/></g><g transform="translate(836 467)" fill="#fff" stroke="#707070" stroke-width="1"><rect width="32" height="32" stroke="none"/><rect x="0.5" y="0.5" width="31" height="31" fill="none"/></g><g transform="translate(836 519)" fill="#fff" stroke="#707070" stroke-width="1"><rect width="32" height="32" stroke="none"/><rect x="0.5" y="0.5" width="31" height="31" fill="none"/></g><g transform="translate(836 571)" fill="#fff" stroke="#707070" stroke-width="1"><rect width="32" height="32" stroke="none"/><rect x="0.5" y="0.5" width="31" height="31" fill="none"/></g><g transform="translate(836 623)" fill="#fff" stroke="#707070" stroke-width="1"><rect width="32" height="32" stroke="none"/><rect x="0.5" y="0.5" width="31" height="31" fill="none"/></g><g transform="translate(836 675)" fill="#fff" stroke="#707070" stroke-width="1"><rect width="32" height="32" stroke="none"/><rect x="0.5" y="0.5" width="31" height="31" fill="none"/></g><g transform="translate(836 727)" fill="#fff" stroke="#707070" stroke-width="1"><rect width="32" height="32" stroke="none"/><rect x="0.5" y="0.5" width="31" height="31" fill="none"/></g><g transform="translate(836 779)" fill="#fff" stroke="#707070" stroke-width="1"><rect width="32" height="32" stroke="none"/><rect x="0.5" y="0.5" width="31" height="31" fill="none"/></g><line x2="247" transform="translate(933.5 311.5)" fill="none" stroke="#707070" stroke-width="1"/><line x2="247" transform="translate(933.5 327.5)" fill="none" stroke="#707070" stroke-width="1"/><line x2="247" transform="translate(933.5 343.5)" fill="none" stroke="#707070" stroke-width="1"/><line x2="247" transform="translate(933.5 364.5)" fill="none" stroke="#707070" stroke-width="1"/><line x2="247" transform="translate(933.5 385.5)" fill="none" stroke="#707070" stroke-width="1"/><line x2="247" transform="translate(933.5 420.5)" fill="none" stroke="#707070" stroke-width="1"/><line x2="247" transform="translate(933.5 441.5)" fill="none" stroke="#707070" stroke-width="1"/><line x2="247" transform="translate(933.5 469.5)" fill="none" stroke="#707070" stroke-width="1"/><line x2="247" transform="translate(933.5 490.5)" fill="none" stroke="#707070" stroke-width="1"/><line x2="247" transform="translate(933.5 525.5)" fill="none" stroke="#707070" stroke-width="1"/><line x2="247" transform="translate(933.5 546.5)" fill="none" stroke="#707070" stroke-width="1"/><line x2="247" transform="translate(933.5 574.5)" fill="none" stroke="#707070" stroke-width="1"/><line x2="247" transform="translate(933.5 595.5)" fill="none" stroke="#707070" stroke-width="1"/><path d="M0,0H247" transform="translate(933.5 630.5)" fill="none" stroke="#707070" stroke-width="1"/><line x2="247" transform="translate(933.5 651.5)" fill="none" stroke="#707070" stroke-width="1"/><line x2="247" transform="translate(933.5 679.5)" fill="none" stroke="#707070" stroke-width="1"/><line x2="247" transform="translate(933.5 700.5)" fill="none" stroke="#707070" stroke-width="1"/><line x2="247" transform="translate(933.5 735.5)" fill="none" stroke="#707070" stroke-width="1"/><line x2="247" transform="translate(933.5 756.5)" fill="none" stroke="#707070" stroke-width="1"/><line x2="247" transform="translate(933.5 784.5)" fill="none" stroke="#707070" stroke-width="1"/><line x2="247" transform="translate(933.5 800.5)" fill="none" stroke="#707070" stroke-width="1"/><line y1="21" x2="23" transform="translate(840.5 317.5)" fill="none" stroke="#707070" stroke-width="1"/><line y1="21" x2="23" transform="translate(840.5 368.5)" fill="none" stroke="#707070" stroke-width="1"/><line y1="21" x2="23" transform="translate(840.5 420.5)" fill="none" stroke="#707070" stroke-width="1"/><line y1="21" x2="23" transform="translate(840.5 472.5)" fill="none" stroke="#707070" stroke-width="1"/><line y1="21" x2="23" transform="translate(840.5 524.5)" fill="none" stroke="#707070" stroke-width="1"/><line y1="21" x2="23" transform="translate(840.5 578.5)" fill="none" stroke="#707070" stroke-width="1"/><line y1="21" x2="23" transform="translate(840.5 680.5)" fill="none" stroke="#707070" stroke-width="1"/><line y1="21" x2="23" transform="translate(840.5 732.5)" fill="none" stroke="#707070" stroke-width="1"/><line x2="27" y2="21" transform="translate(838.5 316.5)" fill="none" stroke="#707070" stroke-width="1"/><line x2="27" y2="21" transform="translate(840.5 368.5)" fill="none" stroke="#707070" stroke-width="1"/><line x2="27" y2="21" transform="translate(838.5 420.5)" fill="none" stroke="#707070" stroke-width="1"/><line x2="27" y2="21" transform="translate(838.5 472.5)" fill="none" stroke="#707070" stroke-width="1"/><line x2="27" y2="21" transform="translate(838.5 526.5)" fill="none" stroke="#707070" stroke-width="1"/><line x2="27" y2="21" transform="translate(838.5 578.5)" fill="none" stroke="#707070" stroke-width="1"/><line x2="27" y2="21" transform="translate(838.5 679.5)" fill="none" stroke="#707070" stroke-width="1"/><line x2="27" y2="21" transform="translate(838.5 732.5)" fill="none" stroke="#707070" stroke-width="1"/></g></g></g></svg>